<?xml version="1.0" encoding="utf-8"?><!-- Uploaded to: SVG Repo, www.svgrepo.com, Generator: SVG Repo Mixer Tools -->
<svg fill="#000000" width="800px" height="800px" viewBox="0 0 24 24" id="breeze-2" data-name="Flat Color" xmlns="http://www.w3.org/2000/svg" class="icon flat-color"><path id="secondary" d="M19,11H13a1,1,0,0,1,0-2h6a1,1,0,0,0,0-2,1,1,0,0,1,0-2,3,3,0,0,1,0,6ZM14,6a1,1,0,0,0-1-1H9A1,1,0,0,0,9,7h4A1,1,0,0,0,14,6Z" style="fill: rgb(44, 169, 188);"></path><path id="primary" d="M16,19a1,1,0,0,1,0-2,1,1,0,0,0,0-2H6a1,1,0,0,1,0-2H16a3,3,0,0,1,0,6Zm-6-9A1,1,0,0,0,9,9H3a1,1,0,0,0,0,2H9A1,1,0,0,0,10,10Z" style="fill: rgb(0, 0, 0);"></path></svg>